<svg width="16" height="21" viewBox="0 0 16 21" fill="none" xmlns="http://www.w3.org/2000/svg">
<path d="M13.6 8.56V5.54285C13.6 2.72685 10.8 0.514282 8 0.514282C5.2 0.514282 2.4 2.72685 2.4 5.54285V8.56C1.2 8.56 0 9.76685 0 10.9737V18.0137C0 19.4217 1.2 20.6286 2.4 20.6286H13.4C14.8 20.6286 16 19.4217 16 18.2149V11.1749C16 9.76685 14.8 8.56 13.6 8.56Z" fill="#2F4058"/>
<path d="M10.9714 8.74285H5.02856V5.55918C5.02856 3.86122 6.41523 2.8 7.99999 2.8C9.58475 2.8 10.9714 3.86122 10.9714 5.55918V8.74285Z" fill="white"/>
</svg>
