<?xml version="1.0" encoding="utf-8"?>
<!-- Generator: Adobe Illustrator 23.0.1, SVG Export Plug-In . SVG Version: 6.00 Build 0)  -->
<svg version="1.1" xmlns="http://www.w3.org/2000/svg" xmlns:xlink="http://www.w3.org/1999/xlink" x="0px" y="0px"
	 viewBox="0 0 200 200" style="enable-background:new 0 0 200 200;" xml:space="preserve">
<style type="text/css">
	.st0{fill:#FFFFFF;}
	.st1{fill:#FBB812;}
	.st2{fill:none;stroke:#1E1E1E;stroke-width:5;stroke-linecap:round;stroke-linejoin:round;stroke-miterlimit:10;}
	.st3{fill:none;stroke:#1E1E1E;stroke-width:5;stroke-miterlimit:10;}
	.st4{fill:#1E1E1E;}
</style>
<g id="Capa_1">
</g>
<g id="Capa_3">
</g>
<g id="Capa_2">
	<g>
		<path class="st0" d="M46.15,68.26v73.59c0,18.82,15.26,34.08,34.08,34.08h16.33c18.82,0,34.08-15.26,34.08-34.08V68.26
			c0-1.17-0.95-2.11-2.11-2.11H48.26C47.09,66.14,46.15,67.09,46.15,68.26z"/>
		<path class="st1" d="M54.64,60.88v73.59c0,18.82,15.26,34.08,34.08,34.08h16.33c18.82,0,34.08-15.26,34.08-34.08V60.88
			c0-1.17-0.95-2.11-2.11-2.11H56.76C55.59,58.76,54.64,59.71,54.64,60.88z"/>
		<path class="st2" d="M55.53,143.15c2.47,9.6,9.01,17.57,17.68,21.94"/>
		<path class="st3" d="M46.15,68.26v73.59c0,18.82,15.26,34.08,34.08,34.08h16.33c18.82,0,34.08-15.26,34.08-34.08V68.26
			c0-1.17-0.95-2.11-2.11-2.11H48.26C47.09,66.14,46.15,67.09,46.15,68.26z"/>
		<path class="st3" d="M140.29,143.64h-6.17c-1.93,0-3.49-1.56-3.49-3.49V76.73c0-1.93,1.56-3.49,3.49-3.49h6.17
			c10.5,0,19.02,8.51,19.02,19.02v32.36C159.31,135.12,150.8,143.64,140.29,143.64z"/>
		<circle class="st4" cx="54.64" cy="132.86" r="2.5"/>
		<g>
			<path class="st0" d="M67.54,139.81c-1.38,0-2.5-1.12-2.5-2.5V85.27c0-1.38,1.12-2.5,2.5-2.5s2.5,1.12,2.5,2.5v52.04
				C70.04,138.69,68.92,139.81,67.54,139.81z"/>
		</g>
		<g>
			<path class="st0" d="M90.89,139.81c-1.38,0-2.5-1.12-2.5-2.5V85.27c0-1.38,1.12-2.5,2.5-2.5s2.5,1.12,2.5,2.5v52.04
				C93.39,138.69,92.27,139.81,90.89,139.81z"/>
		</g>
		<g>
			<path class="st0" d="M114.24,139.81c-1.38,0-2.5-1.12-2.5-2.5V85.27c0-1.38,1.12-2.5,2.5-2.5s2.5,1.12,2.5,2.5v52.04
				C116.74,138.69,115.62,139.81,114.24,139.81z"/>
		</g>
		<g>
			<path class="st4" d="M65.04,136.96c-1.38,0-2.5-1.12-2.5-2.5V82.42c0-1.38,1.12-2.5,2.5-2.5c1.38,0,2.5,1.12,2.5,2.5v52.04
				C67.54,135.84,66.42,136.96,65.04,136.96z"/>
		</g>
		<g>
			<path class="st4" d="M88.39,136.96c-1.38,0-2.5-1.12-2.5-2.5V82.42c0-1.38,1.12-2.5,2.5-2.5s2.5,1.12,2.5,2.5v52.04
				C90.89,135.84,89.77,136.96,88.39,136.96z"/>
		</g>
		<g>
			<path class="st4" d="M111.74,136.96c-1.38,0-2.5-1.12-2.5-2.5V82.42c0-1.38,1.12-2.5,2.5-2.5s2.5,1.12,2.5,2.5v52.04
				C114.24,135.84,113.12,136.96,111.74,136.96z"/>
		</g>
		<path class="st0" d="M76.38,69.66c-1.01,10.71-11.45,19.02-22.3,16.7c-7.33-1.57-12.81-7.96-13.35-15.44
			c-0.44-6.22,2.45-11.8,7.08-15.12c-1.57-3.15-2.29-6.82-1.84-10.67c1.13-9.69,9.18-16.78,18.93-16.75
			c4.35,0.01,8.35,1.48,11.54,3.95c4.27-5.05,10.66-8.26,17.8-8.26c10.35,0,19.13,6.74,22.17,16.08c0.38-0.03,0.76-0.04,1.15-0.04
			c10.23,0,18.53,8.29,18.53,18.53s-8.3,18.54-18.53,18.54c-6.29,0-11.85-3.13-15.19-7.92c-2.53,0.94-5.27,1.45-8.13,1.45
			c-6.73,0-12.8-2.85-17.05-7.41c-0.27-0.29-0.76-0.11-0.76,0.29L76.38,69.66z"/>
		<path class="st2" d="M76.38,69.66c-1.01,10.71-11.45,19.02-22.3,16.7c-7.33-1.57-12.81-7.96-13.35-15.44
			c-0.44-6.22,2.45-11.8,7.08-15.12c-1.57-3.15-2.29-6.82-1.84-10.67c1.13-9.69,9.18-16.78,18.93-16.75
			c4.35,0.01,8.35,1.48,11.54,3.95c4.27-5.05,10.66-8.26,17.8-8.26c10.35,0,19.13,6.74,22.17,16.08c0.38-0.03,0.76-0.04,1.15-0.04
			c10.23,0,18.53,8.29,18.53,18.53s-8.3,18.54-18.53,18.54c-6.29,0-11.85-3.13-15.19-7.92c-2.53,0.94-5.27,1.45-8.13,1.45
			c-6.73,0-12.8-2.85-17.05-7.41c-0.27-0.29-0.76-0.11-0.76,0.29L76.38,69.66z"/>
	</g>
</g>
</svg>
